<svg viewBox="0 0 48 48" fill="none" xmlns="http://www.w3.org/2000/svg">
  <!-- Version 1: The Gatekeeper - Human silhouette in code brackets -->
  <defs>
    <linearGradient id="v1Grad" x1="0%" y1="0%" x2="100%" y2="100%">
      <stop offset="0%" stop-color="#06d6d6" />
      <stop offset="100%" stop-color="#a855f7" />
    </linearGradient>
  </defs>

  <!-- Left curly bracket { -->
  <path d="M14 8 Q8 8 8 14 L8 20 Q8 24 4 24 Q8 24 8 28 L8 34 Q8 40 14 40"
        stroke="url(#v1Grad)" stroke-width="2.5" stroke-linecap="round" fill="none" />

  <!-- Right curly bracket } -->
  <path d="M34 8 Q40 8 40 14 L40 20 Q40 24 44 24 Q40 24 40 28 L40 34 Q40 40 34 40"
        stroke="url(#v1Grad)" stroke-width="2.5" stroke-linecap="round" fill="none" />

  <!-- Human silhouette in the middle -->
  <!-- Head -->
  <circle cx="24" cy="14" r="5" fill="#06d6d6" />
  <!-- Body -->
  <path d="M24 19 L24 30" stroke="#06d6d6" stroke-width="3" stroke-linecap="round" />
  <!-- Arms raised (approval gesture) -->
  <path d="M18 25 L24 22 L30 25" stroke="#06d6d6" stroke-width="2.5" stroke-linecap="round" stroke-linejoin="round" fill="none" />
  <!-- Legs -->
  <path d="M24 30 L20 38" stroke="#06d6d6" stroke-width="2.5" stroke-linecap="round" />
  <path d="M24 30 L28 38" stroke="#06d6d6" stroke-width="2.5" stroke-linecap="round" />
</svg>
